<?xml version="1.0" encoding="UTF-8"?>
<svg width="212px" height="40px" viewBox="0 0 212 40" version="1.1" xmlns="http://www.w3.org/2000/svg" xmlns:xlink="http://www.w3.org/1999/xlink">
    <!-- Generator: Sketch 47.1 (45422) - http://www.bohemiancoding.com/sketch -->
    <title>Readdit_logo</title>
    <desc>Created with Sketch.</desc>
    <defs></defs>
    <g id="Symbols" stroke="none" stroke-width="1" fill-rule="evenodd">
        <g id="Header" transform="translate(-606.000000, -121.000000)">
            <g id="Readdit_logo" transform="translate(606.000000, 105.000000)">
                <g id="my-career" transform="translate(79.200000, 0.000000)" fill="#fff">
                    <path d="M18.1300613,31.8357362 L16.0050613,31.6107362 C13.1050468,31.6107362 10.8217363,32.9190564 9.15506128,35.5357362 L5.83006128,54.7607362 L1.30506128,54.7607362 L6.00506128,27.7107362 L10.3800613,27.6857362 L9.70506128,30.8357362 C11.6217375,28.3190569 13.8800483,27.0940692 16.4800613,27.1607362 C17.030064,27.1607362 17.7467235,27.2857349 18.6300613,27.5357362 L18.1300613,31.8357362 Z M25.9550614,55.2607362 C22.5883779,55.1940692 19.9550709,53.9524149 18.0550614,51.5357362 C16.1550519,49.1190574 15.3550599,46.0274217 15.6550614,42.2607362 L15.7800614,41.1857362 C16.0633961,38.5023894 16.8592215,36.0524139 18.1675614,33.8357362 C19.4759013,31.6190584 21.0717186,29.9482418 22.9550614,28.8232362 C24.8384041,27.6982305 26.8717171,27.1607359 29.0550614,27.2107362 C31.8384086,27.2774032 34.0217201,28.2023939 35.6050614,29.9857362 C37.1884026,31.7690784 38.0550606,34.1857209 38.2050614,37.2357362 C38.2550616,38.3190749 38.2217286,39.4023974 38.1050614,40.4857362 L37.8300614,42.5607362 L20.1550614,42.5607362 C19.8550599,45.0107484 20.2592225,47.0940609 21.3675614,48.8107362 C22.4759003,50.5274114 24.1300504,51.4190692 26.3300614,51.4857362 C28.9967414,51.5524032 31.4633834,50.3524152 33.7300614,47.8857362 L36.3300614,50.0857362 C35.1967224,51.7190777 33.734237,52.9982315 31.9425614,53.9232362 C30.1508858,54.8482408 28.1550724,55.2940697 25.9550614,55.2607362 Z M28.8300614,30.9857362 C26.9633854,30.9357359 25.334235,31.5690629 23.9425614,32.8857362 C22.5508878,34.2024094 21.4467321,36.1607232 20.6300614,38.7607362 L33.7800614,38.7857362 L33.8800614,38.3857362 C34.1467294,36.2857257 33.8092328,34.5399098 32.8675614,33.1482362 C31.92589,31.7565625 30.5800701,31.0357364 28.8300614,30.9857362 Z M53.2550615,54.7607362 C53.1383942,54.2774004 53.0800615,53.8024052 53.0800615,53.3357362 L53.1550615,51.9107362 C50.6717157,54.2107477 48.0384087,55.3274032 45.2550615,55.2607362 C42.8717162,55.2274027 40.9342356,54.4732435 39.4425615,52.9982362 C37.9508873,51.5232288 37.2717275,49.6774139 37.4050615,47.4607362 C37.571729,44.5940552 38.8258831,42.3565775 41.1675615,40.7482362 C43.5092398,39.1398948 46.5883757,38.3357362 50.4050615,38.3357362 L55.1300615,38.3607362 L55.4300615,36.2107362 C55.596729,34.5940614 55.2842321,33.3149075 54.4925615,32.3732362 C53.7008908,31.4315648 52.5134027,30.9440697 50.9300615,30.9107362 C49.3800537,30.8774027 48.0092341,31.2565655 46.8175615,32.0482362 C45.6258888,32.8399068 44.8967295,33.8857297 44.6300615,35.1857362 L40.0800615,35.2107362 C40.2300622,33.6273949 40.8467227,32.2232423 41.9300615,30.9982362 C43.0134002,29.77323 44.405053,28.8232395 46.1050615,28.1482362 C47.80507,27.4732328 49.5633857,27.1524027 51.3800615,27.1857362 C54.1967422,27.2524032 56.388387,28.1065613 57.9550615,29.7482362 C59.521736,31.389911 60.1800627,33.5690559 59.9300615,36.2857362 L57.7300615,49.6857362 L57.6050615,51.6107362 C57.571728,52.5274074 57.671727,53.4357317 57.9050615,54.3357362 L57.8550615,54.7607362 L53.2550615,54.7607362 Z M46.1550615,51.2607362 C47.6050687,51.2940697 48.9758883,50.9482398 50.2675615,50.2232362 C51.5592346,49.4982325 52.6717235,48.4940759 53.6050615,47.2107362 L54.5800615,41.6357362 L51.1550615,41.6107362 C48.3050472,41.6107362 46.1217357,42.0607317 44.6050615,42.9607362 C43.0883872,43.8607407 42.2300625,45.1357279 42.0300615,46.7857362 C41.8800607,48.0524092 42.1758911,49.1065653 42.9175615,49.9482362 C43.6592318,50.789907 44.7383877,51.2274027 46.1550615,51.2607362 Z M61.1800616,41.1857362 C61.5133966,38.4357224 62.2717223,35.9524139 63.4550616,33.7357362 C64.6384008,31.5190584 66.0967196,29.8607417 67.8300616,28.7607362 C69.5634036,27.6607307 71.4717178,27.1357359 73.5550616,27.1857362 C76.5717433,27.2524032 78.8883868,28.3523922 80.5050616,30.4857362 L83.1050616,16.3607362 L87.6300616,16.3607362 L80.9800616,54.7607362 L76.8550616,54.7607362 L77.3300616,51.8607362 C75.1967176,54.1940812 72.5634106,55.3274032 69.4300616,55.2607362 C66.9300491,55.1940692 64.9384023,54.2149123 63.4550616,52.3232362 C61.9717208,50.43156 61.1717288,47.8940854 61.0550616,44.7107362 C61.0050613,43.7273979 61.0467276,42.5524097 61.1800616,41.1857362 Z M65.5300616,43.7857362 C65.4800613,46.1690814 65.9050571,48.0190629 66.8050616,49.3357362 C67.7050661,50.6524094 69.0217196,51.3274027 70.7550616,51.3607362 C73.3717413,51.4774034 75.6967181,50.1607499 77.7300616,47.4107362 L79.8800616,34.9107362 C78.8800566,32.4440572 77.0634081,31.1774032 74.4300616,31.1107362 C72.6467193,31.0607359 71.0759017,31.5982305 69.7175616,32.7232362 C68.3592214,33.8482418 67.3258984,35.423226 66.6175616,37.4482362 C65.9092247,39.4732463 65.5467283,41.5857252 65.5300616,43.7857362 Z M85.3300617,41.1857362 C85.6633967,38.4357224 86.4217224,35.9524139 87.6050617,33.7357362 C88.7884009,31.5190584 90.2467197,29.8607417 91.9800617,28.7607362 C93.7134037,27.6607307 95.6217179,27.1357359 97.7050617,27.1857362 C100.721743,27.2524032 103.038387,28.3523922 104.655062,30.4857362 L107.255062,16.3607362 L111.780062,16.3607362 L105.130062,54.7607362 L101.005062,54.7607362 L101.480062,51.8607362 C99.3467177,54.1940812 96.7134107,55.3274032 93.5800617,55.2607362 C91.0800492,55.1940692 89.0884024,54.2149123 87.6050617,52.3232362 C86.1217209,50.43156 85.3217289,47.8940854 85.2050617,44.7107362 C85.1550614,43.7273979 85.1967277,42.5524097 85.3300617,41.1857362 Z M89.6800617,43.7857362 C89.6300614,46.1690814 90.0550572,48.0190629 90.9550617,49.3357362 C91.8550662,50.6524094 93.1717197,51.3274027 94.9050617,51.3607362 C97.5217414,51.4774034 99.8467182,50.1607499 101.880062,47.4107362 L104.030062,34.9107362 C103.030057,32.4440572 101.213408,31.1774032 98.5800617,31.1107362 C96.7967194,31.0607359 95.2259018,31.5982305 93.8675617,32.7232362 C92.5092215,33.8482418 91.4758985,35.423226 90.7675617,37.4482362 C90.0592248,39.4732463 89.6967284,41.5857252 89.6800617,43.7857362 Z M113.080062,54.7607362 L108.580062,54.7607362 L113.280062,27.7107362 L117.780062,27.7107362 L113.080062,54.7607362 Z M116.805062,17.8357362 C117.571732,17.8024027 118.209226,18.031567 118.717562,18.5232362 C119.225898,19.0149053 119.480062,19.6607322 119.480062,20.4607362 C119.463395,21.2440734 119.209231,21.8857337 118.717562,22.3857362 C118.225893,22.8857387 117.588399,23.1524027 116.805062,23.1857362 C116.021725,23.2190697 115.380064,22.9940719 114.880062,22.5107362 C114.380059,22.0274004 114.138395,21.3940734 114.155062,20.6107362 C114.171729,19.8273989 114.421726,19.1774054 114.905062,18.6607362 C115.388398,18.1440669 116.021725,17.8690697 116.805062,17.8357362 Z M128.330062,21.1607362 L127.180062,27.7107362 L132.105062,27.7107362 L131.480062,31.2857362 L126.580062,31.2857362 L123.755062,48.1107362 C123.705062,48.5440717 123.696728,48.9440677 123.730062,49.3107362 C123.846729,50.6107427 124.555055,51.2607362 125.855062,51.2607362 C126.405065,51.2607362 127.138391,51.1774037 128.055062,51.0107362 L127.705062,54.7857362 C126.621723,55.0857377 125.521734,55.2357362 124.405062,55.2357362 C122.605053,55.2024027 121.255066,54.5399093 120.355062,53.2482362 C119.455057,51.956563 119.105061,50.2190804 119.305062,48.0357362 L122.055062,31.2857362 L117.280062,31.2857362 L117.905062,27.7107362 L122.680062,27.7107362 L123.830062,21.1607362 L128.330062,21.1607362 Z" id="readdit"></path>
                </g>
                <polyline id="Fill-9-Copy" fill="#FF0082" fill-rule="nonzero" points="2.71629465 17 2.11494129 25.6373345 20.0981123 36.5004765 0.601827995 47.3626655 0 56 35 36.5004765 2.71629465 17"></polyline>
                <polyline id="Fill-1-Copy" fill="#03ADEE" fill-rule="nonzero" points="36.7162947 17 36.1149413 25.6373345 54.0981123 36.5004765 34.601828 47.3626655 34 56 69 36.5004765 36.7162947 17"></polyline>
            </g>
        </g>
    </g>
</svg>